<?xml version="1.0" encoding="UTF-8" standalone="no"?>
<!-- Created with Inkscape (http://www.inkscape.org/) -->

<svg
   width="140mm"
   height="75mm"
   viewBox="0 0 140 75"
   version="1.1"
   id="svg1"
   inkscape:version="1.4.3 (0d15f750, 2025-12-25)"
   sodipodi:docname="pyxis.svg"
   inkscape:export-filename="pyxis.jpg"
   inkscape:export-xdpi="1486.26"
   inkscape:export-ydpi="1486.26"
   xmlns:inkscape="http://www.inkscape.org/namespaces/inkscape"
   xmlns:sodipodi="http://sodipodi.sourceforge.net/DTD/sodipodi-0.dtd"
   xmlns="http://www.w3.org/2000/svg"
   xmlns:svg="http://www.w3.org/2000/svg">
  <sodipodi:namedview
     id="namedview1"
     pagecolor="#ffffff"
     bordercolor="#000000"
     borderopacity="0.25"
     inkscape:showpageshadow="2"
     inkscape:pageopacity="0.0"
     inkscape:pagecheckerboard="0"
     inkscape:deskcolor="#d1d1d1"
     inkscape:document-units="mm"
     inkscape:zoom="0.63526323"
     inkscape:cx="214.08448"
     inkscape:cy="249.50287"
     inkscape:window-width="1440"
     inkscape:window-height="752"
     inkscape:window-x="0"
     inkscape:window-y="30"
     inkscape:window-maximized="1"
     inkscape:current-layer="layer1" />
  <defs
     id="defs1" />
  <g
     inkscape:label="Layer 1"
     inkscape:groupmode="layer"
     id="layer1">
    <path
       style="font-weight:bold;font-stretch:semi-expanded;font-size:47.1254px;font-family:Steiner;-inkscape-font-specification:'Steiner Light Semi-Expanded';fill:#1a1a1a;fill-opacity:1;stroke-width:0.224901;stroke-dasharray:none"
       d="m 16.181249,32.039806 c 1.783621,-2.433443 3.316419,-3.88497 4.598395,-4.354582 1.769685,-1.138453 4.250033,-1.70768 7.44104,-1.70768 1.978705,0.09962 3.957407,0.640381 5.936111,1.622296 2.759037,1.536911 4.737741,3.956124 5.93611,7.257636 0.390168,1.081531 0.585251,2.618442 0.585251,4.610735 0,2.732286 -0.557381,5.009192 -1.672143,6.830716 -1.337716,2.646903 -3.734455,4.610734 -7.190219,5.891493 -1.644275,0.455381 -3.204943,0.683072 -4.682002,0.683072 -3.037728,0 -5.880374,-1.08153 -8.527935,-3.244591 -1.268042,-1.223836 -2.048376,-2.16306 -2.341,-2.81767 h -0.08361 V 62.607264 H 14.258284 V 25.892161 h 1.922965 z m 0.167215,7.001485 v 0.256152 l -0.08361,0.08538 0.08361,0.08538 v 0.341536 c 0,3.628818 1.47706,6.588795 4.43118,8.879932 2.145918,1.366143 4.236098,2.049214 6.27054,2.049214 h 0.919679 c 1.881162,0 3.915604,-0.626148 6.103325,-1.878447 3.121335,-2.404982 4.682003,-5.564188 4.682003,-9.477619 0,-2.589981 -0.808203,-5.037654 -2.424609,-7.343021 -2.438543,-2.675364 -5.309057,-4.013045 -8.611541,-4.013045 h -0.501642 c -2.42461,0 -4.877088,0.910762 -7.357434,2.732286 -2.341001,2.333828 -3.511501,5.094577 -3.511501,8.282244 z m 26.837908,-13.14913 h 2.006573 c 0.08361,0 0.696726,1.565373 1.839358,4.696118 l 6.604968,18.272167 h 0.167214 l 8.277112,-22.968285 h 2.09018 v 0.08538 l -13.37715,36.62972 h -2.006573 v -0.08538 L 52.717591,51.50735 Z m 23.493619,0 H 69.1046 c 0.348362,0.298844 1.90903,2.205752 4.682002,5.720725 l 5.100038,6.147646 19.208027,-23.187849 2.170523,-0.01014 -20.124442,24.820282 10.952547,13.405281 H 88.75229 C 86.996539,50.767354 83.819465,46.896615 79.22107,41.175889 l -0.33443,-0.256151 c -0.348363,0.298844 -1.90903,2.205752 -4.682002,5.720725 l -5.016431,6.147645 H 66.763598 L 77.71614,39.382827 Z M 99.996498,52.788108 H 98.115327 V 25.892161 h 1.881171 z M 110.78184,25.892161 h 16.13619 v 1.963831 h -16.55424 c -2.88444,0 -4.72381,1.195375 -5.51808,3.586127 -0.22295,0.739993 -0.33442,1.394604 -0.33442,1.96383 0,1.536911 0.64099,2.903055 1.92296,4.09843 1.01722,0.739995 1.90904,1.138453 2.67544,1.195375 h 11.6214 c 1.46312,0.170769 2.74509,0.739995 3.84592,1.70768 1.14264,1.109991 1.83935,2.248444 2.09018,3.415358 l 0.16722,1.109992 v 1.793063 c -0.16722,1.394604 -0.80821,2.760748 -1.92296,4.09843 -0.90575,0.882302 -2.07625,1.50845 -3.51151,1.878447 l -1.83936,0.08538 h -17.05586 v -1.878447 h 16.63783 c 3.06559,0 4.96069,-1.28076 5.68528,-3.842278 l 0.16722,-1.366143 c 0,-2.177291 -1.05902,-3.771126 -3.17707,-4.781502 l -1.50493,-0.341536 h -10.61811 c -1.47707,0.05692 -2.89839,-0.369998 -4.26397,-1.280759 -1.8951,-1.636527 -2.84265,-3.628819 -2.84265,-5.976878 0,-2.191521 0.86394,-4.155352 2.59182,-5.891493 1.29592,-1.024607 3.16315,-1.536911 5.60169,-1.536911 z"
       id="text1"
       aria-label="pyx is"
       sodipodi:nodetypes="cccccsccsccccccccccccscsscscsscsccscccccccccccccccccccccccccccccccccccscsccccccccccccsccccccscsc" />
  </g>
</svg>
