<?xml version="1.0" encoding="UTF-8" standalone="no"?>
<!-- Uploaded to: SVG Repo, www.svgrepo.com, Generator: SVG Repo Mixer Tools -->

<svg
   width="800px"
   height="800px"
   viewBox="0 0 32 32"
   version="1.1"
   id="svg1"
   sodipodi:docname="search-svgrepo-com.svg"
   inkscape:version="1.4.3 (0d15f750, 2025-12-25)"
   xmlns:inkscape="http://www.inkscape.org/namespaces/inkscape"
   xmlns:sodipodi="http://sodipodi.sourceforge.net/DTD/sodipodi-0.dtd"
   xmlns="http://www.w3.org/2000/svg"
   xmlns:svg="http://www.w3.org/2000/svg"
   xmlns:sketch="http://www.bohemiancoding.com/sketch/ns">
  <sodipodi:namedview
     id="namedview1"
     pagecolor="#ffffff"
     bordercolor="#000000"
     borderopacity="0.25"
     inkscape:showpageshadow="2"
     inkscape:pageopacity="0.0"
     inkscape:pagecheckerboard="0"
     inkscape:deskcolor="#d1d1d1"
     inkscape:zoom="0.17616258"
     inkscape:cx="635.77634"
     inkscape:cy="777.6907"
     inkscape:window-width="1440"
     inkscape:window-height="749"
     inkscape:window-x="0"
     inkscape:window-y="30"
     inkscape:window-maximized="1"
     inkscape:current-layer="Page-1" />
  <title
     id="title1">search</title>
  <desc
     id="desc1">Created with Sketch Beta.</desc>
  <defs
     id="defs1" />
  <g
     id="Page-1"
     stroke="none"
     stroke-width="1"
     fill="none"
     fill-rule="evenodd"
     sketch:type="MSPage">
    <g
       id="Icon-Set"
       sketch:type="MSLayerGroup"
       transform="translate(-256.000000, -1139.000000)"
       fill="#000000">
      <path
         d="M269.46,1163.45 C263.17,1163.45 258.071,1158.44 258.071,1152.25 C258.071,1146.06 263.17,1141.04 269.46,1141.04 C275.75,1141.04 280.85,1146.06 280.85,1152.25 C280.85,1158.44 275.75,1163.45 269.46,1163.45 L269.46,1163.45 Z M287.688,1169.25 L279.429,1161.12 C281.591,1158.77 282.92,1155.67 282.92,1152.25 C282.92,1144.93 276.894,1139 269.46,1139 C262.026,1139 256,1144.93 256,1152.25 C256,1159.56 262.026,1165.49 269.46,1165.49 C272.672,1165.49 275.618,1164.38 277.932,1162.53 L286.224,1170.69 C286.629,1171.09 287.284,1171.09 287.688,1170.69 C288.093,1170.3 288.093,1169.65 287.688,1169.25 L287.688,1169.25 Z"
         id="search"
         sketch:type="MSShapeGroup"
         style="fill:#ffffff;fill-opacity:1" />
    </g>
  </g>
</svg>
